<svg xmlns="http://www.w3.org/2000/svg" viewBox="0 0 150.33 150.33"><defs><style>.cls-1{fill:#3b4657;stroke:#606f87;stroke-miterlimit:10;}.cls-2{fill:#516578;}.cls-3{fill:#ffcd59;}.cls-4{fill:#f2f2f2;}</style></defs><g id="Layer_2" data-name="Layer 2"><g id="Layer_1-2" data-name="Layer 1"><rect class="cls-1" x="0.5" y="0.5" width="149.33" height="149.33" rx="10" transform="translate(150.33 150.33) rotate(180)"/><rect class="cls-2" x="37.84" y="112.5" width="74.65" height="37.33" transform="translate(150.33 262.33) rotate(180)"/><rect class="cls-3" x="112.49" y="112.5" width="10.06" height="37.33" transform="translate(235.04 262.33) rotate(180)"/><rect class="cls-3" x="27.78" y="112.5" width="10.06" height="37.33" transform="translate(65.63 262.33) rotate(180)"/><rect class="cls-2" x="37.84" y="0.5" width="74.65" height="149.33" transform="translate(150.33 0) rotate(90)"/><rect class="cls-3" x="70.14" y="-41.85" width="10.06" height="149.33" transform="translate(107.98 -42.35) rotate(90)"/><rect class="cls-3" x="126.13" y="98.85" width="10.06" height="37.34" transform="translate(248.68 -13.64) rotate(90)"/><rect class="cls-3" x="14.14" y="98.85" width="10.06" height="37.34" transform="translate(136.69 98.35) rotate(90)"/><rect class="cls-4" x="72.78" y="93.83" width="4.78" height="18.67" transform="translate(150.33 206.33) rotate(180)"/><rect class="cls-4" x="72.78" y="131.17" width="4.78" height="9.33" transform="translate(150.33 271.67) rotate(180)"/><rect class="cls-2" x="37.84" y="0.51" width="74.65" height="37.33"/><rect class="cls-3" x="27.78" y="0.51" width="10.06" height="37.33"/><rect class="cls-3" x="112.49" y="0.51" width="10.06" height="37.33"/><rect class="cls-4" x="72.78" y="37.84" width="4.78" height="18.67"/><rect class="cls-4" x="72.78" y="9.84" width="4.78" height="9.33"/><rect class="cls-4" x="54.11" y="65.83" width="4.78" height="18.67" transform="translate(131.66 18.67) rotate(90)"/><rect class="cls-4" x="16.78" y="65.83" width="4.78" height="18.67" transform="translate(94.34 56) rotate(90)"/><rect class="cls-4" x="91.44" y="65.83" width="4.78" height="18.67" transform="translate(169 -18.66) rotate(90)"/><rect class="cls-4" x="128.77" y="65.83" width="4.78" height="18.67" transform="translate(206.33 -56) rotate(90)"/></g></g></svg>