<?xml version="1.0" encoding="utf-8"?>
<!-- Generator: Adobe Illustrator 26.0.2, SVG Export Plug-In . SVG Version: 6.00 Build 0)  -->
<svg version="1.1" id="Layer_1" xmlns="http://www.w3.org/2000/svg" xmlns:xlink="http://www.w3.org/1999/xlink" x="0px" y="0px"
	 viewBox="0 0 150.3 150.3" style="enable-background:new 0 0 150.3 150.3;" xml:space="preserve">
<style type="text/css">
	.st0{fill:#3B4657;stroke:#606F87;stroke-miterlimit:10;}
	.st1{fill:#516578;}
	.st2{fill:#F2F2F2;}
	.st3{fill:#FFCD59;}
</style>
<g id="Layer_2_00000169549387886553661510000014257526476631845298_">
	<g id="Layer_1-2">
		<path class="st0" d="M0.5,139.8V10.5c0-5.5,4.5-10,10-10h129.3c5.5,0,10,4.5,10,10v129.3c0,5.5-4.5,10-10,10H10.5
			C5,149.8,0.5,145.4,0.5,139.8z"/>
		<rect x="37.8" y="37.8" class="st1" width="112" height="74.7"/>
		<rect x="84.5" y="72.8" class="st2" width="18.7" height="4.8"/>
		<rect x="47.2" y="72.8" class="st2" width="18.7" height="4.8"/>
		<rect x="121.8" y="72.8" class="st2" width="18.7" height="4.8"/>
		<rect x="37.8" y="112.5" class="st3" width="112" height="10.1"/>
		<rect x="37.8" y="27.8" class="st3" width="112" height="10.1"/>
		<rect x="27.8" y="27.8" class="st3" width="10.1" height="94.8"/>
	</g>
</g>
</svg>
