<?xml version="1.0" encoding="utf-8"?>
<!-- Generator: Adobe Illustrator 26.0.2, SVG Export Plug-In . SVG Version: 6.00 Build 0)  -->
<svg version="1.1" id="Layer_1" xmlns="http://www.w3.org/2000/svg" xmlns:xlink="http://www.w3.org/1999/xlink" x="0px" y="0px"
	 viewBox="0 0 150.3 150.3" style="enable-background:new 0 0 150.3 150.3;" xml:space="preserve">
<style type="text/css">
	.st0{fill:#3B4657;stroke:#606F87;stroke-miterlimit:10;}
	.st1{fill:#455367;}
	.st2{fill:#F5D9B7;}
	.st3{fill:#F2F2F2;}
</style>
<g id="Layer_2_00000096768156737461872290000000810455197877640091_">
	<g id="Layer_1-2">
		<path class="st0" d="M0.5,139.8V10.5c0-5.5,4.5-10,10-10h129.3c5.5,0,10,4.5,10,10v129.3c0,5.5-4.5,10-10,10H10.5
			C5,149.8,0.5,145.4,0.5,139.8z"/>
		<rect x="0.5" y="37.8" class="st1" width="37.3" height="74.7"/>
		<rect x="0.5" y="112.5" class="st2" width="122.1" height="10.1"/>
		<rect x="0.5" y="27.8" class="st2" width="37.3" height="10.1"/>
		<rect x="37.8" y="0.5" class="st1" width="74.7" height="112"/>
		<rect x="112.5" y="0.5" class="st2" width="10.1" height="112"/>
		<rect x="27.8" y="0.5" class="st2" width="10.1" height="37.3"/>
		<rect x="37.8" y="72.8" class="st3" width="18.7" height="4.8"/>
		<rect x="9.8" y="72.8" class="st3" width="9.3" height="4.8"/>
		<rect x="72.8" y="47.2" class="st3" width="4.8" height="18.7"/>
		<rect x="72.8" y="9.8" class="st3" width="4.8" height="18.7"/>
	</g>
</g>
</svg>
